<svg height="2046" width="720" xmlns="http://www.w3.org/2000/svg">
<rect height="2046" fill="#555" width="720"></rect>
<text fill="#7f7" font-family="Courier New" font-size="12" xml:space="preserve">
<tspan x="10" y="26">16 megabytes installed</tspan>
<tspan x="10" y="42"></tspan>
<tspan x="10" y="58">node_modules</tspan>
<tspan x="10" y="74">└─┬ couchapp@0.11.0 </tspan>
<tspan x="10" y="90">  ├── coffee-script@1.12.5 </tspan>
<tspan x="10" y="106">  ├─┬ connect@3.6.1 </tspan>
<tspan x="10" y="122">  │ ├─┬ debug@2.6.3 </tspan>
<tspan x="10" y="138">  │ │ └── ms@0.7.2 </tspan>
<tspan x="10" y="154">  │ ├─┬ finalhandler@1.0.1 </tspan>
<tspan x="10" y="170">  │ │ ├── encodeurl@1.0.1 </tspan>
<tspan x="10" y="186">  │ │ ├── escape-html@1.0.3 </tspan>
<tspan x="10" y="202">  │ │ ├─┬ on-finished@2.3.0 </tspan>
<tspan x="10" y="218">  │ │ │ └── ee-first@1.1.1 </tspan>
<tspan x="10" y="234">  │ │ ├── statuses@1.3.1 </tspan>
<tspan x="10" y="250">  │ │ └── unpipe@1.0.0 </tspan>
<tspan x="10" y="266">  │ ├── parseurl@1.3.1 </tspan>
<tspan x="10" y="282">  │ └── utils-merge@1.0.0 </tspan>
<tspan x="10" y="298">  ├─┬ http-proxy@0.8.7 </tspan>
<tspan x="10" y="314">  │ ├── colors@0.6.2 </tspan>
<tspan x="10" y="330">  │ ├─┬ optimist@0.3.7 </tspan>
<tspan x="10" y="346">  │ │ └── wordwrap@0.0.3 </tspan>
<tspan x="10" y="362">  │ └── pkginfo@0.2.3 </tspan>
<tspan x="10" y="378">  ├─┬ nano@6.2.0 </tspan>
<tspan x="10" y="394">  │ ├── errs@0.3.2 </tspan>
<tspan x="10" y="410">  │ ├─┬ follow@0.12.1 </tspan>
<tspan x="10" y="426">  │ │ ├── browser-request@0.3.3 </tspan>
<tspan x="10" y="442">  │ │ └─┬ request@2.55.0 </tspan>
<tspan x="10" y="458">  │ │   ├── aws-sign2@0.5.0 </tspan>
<tspan x="10" y="474">  │ │   ├─┬ bl@0.9.5 </tspan>
<tspan x="10" y="490">  │ │   │ └─┬ readable-stream@1.0.34 </tspan>
<tspan x="10" y="506">  │ │   │   ├── core-util-is@1.0.2 </tspan>
<tspan x="10" y="522">  │ │   │   ├── inherits@2.0.3 </tspan>
<tspan x="10" y="538">  │ │   │   ├── isarray@0.0.1 </tspan>
<tspan x="10" y="554">  │ │   │   └── string_decoder@0.10.31 </tspan>
<tspan x="10" y="570">  │ │   ├── caseless@0.9.0 </tspan>
<tspan x="10" y="586">  │ │   ├─┬ combined-stream@0.0.7 </tspan>
<tspan x="10" y="602">  │ │   │ └── delayed-stream@0.0.5 </tspan>
<tspan x="10" y="618">  │ │   ├─┬ form-data@0.2.0 </tspan>
<tspan x="10" y="634">  │ │   │ └── async@0.9.2 </tspan>
<tspan x="10" y="650">  │ │   ├─┬ har-validator@1.8.0 </tspan>
<tspan x="10" y="666">  │ │   │ ├── bluebird@2.11.0 </tspan>
<tspan x="10" y="682">  │ │   │ ├─┬ chalk@1.1.3 </tspan>
<tspan x="10" y="698">  │ │   │ │ ├── ansi-styles@2.2.1 </tspan>
<tspan x="10" y="714">  │ │   │ │ ├── escape-string-regexp@1.0.5 </tspan>
<tspan x="10" y="730">  │ │   │ │ ├─┬ has-ansi@2.0.0 </tspan>
<tspan x="10" y="746">  │ │   │ │ │ └── ansi-regex@2.1.1 </tspan>
<tspan x="10" y="762">  │ │   │ │ ├── strip-ansi@3.0.1 </tspan>
<tspan x="10" y="778">  │ │   │ │ └── supports-color@2.0.0 </tspan>
<tspan x="10" y="794">  │ │   │ ├─┬ commander@2.9.0 </tspan>
<tspan x="10" y="810">  │ │   │ │ └── graceful-readlink@1.0.1 </tspan>
<tspan x="10" y="826">  │ │   │ └─┬ is-my-json-valid@2.16.0 </tspan>
<tspan x="10" y="842">  │ │   │   ├── generate-function@2.0.0 </tspan>
<tspan x="10" y="858">  │ │   │   ├─┬ generate-object-property@1.2.0 </tspan>
<tspan x="10" y="874">  │ │   │   │ └── is-property@1.0.2 </tspan>
<tspan x="10" y="890">  │ │   │   ├── jsonpointer@4.0.1 </tspan>
<tspan x="10" y="906">  │ │   │   └── xtend@4.0.1 </tspan>
<tspan x="10" y="922">  │ │   ├── hawk@2.3.1 </tspan>
<tspan x="10" y="938">  │ │   ├─┬ http-signature@0.10.1 </tspan>
<tspan x="10" y="954">  │ │   │ ├── asn1@0.1.11 </tspan>
<tspan x="10" y="970">  │ │   │ ├── assert-plus@0.1.5 </tspan>
<tspan x="10" y="986">  │ │   │ └── ctype@0.5.3 </tspan>
<tspan x="10" y="1002">  │ │   ├─┬ mime-types@2.0.14 </tspan>
<tspan x="10" y="1018">  │ │   │ └── mime-db@1.12.0 </tspan>
<tspan x="10" y="1034">  │ │   ├── node-uuid@1.4.8 </tspan>
<tspan x="10" y="1050">  │ │   ├── oauth-sign@0.6.0 </tspan>
<tspan x="10" y="1066">  │ │   ├── qs@2.4.2 </tspan>
<tspan x="10" y="1082">  │ │   └── tunnel-agent@0.4.3 </tspan>
<tspan x="10" y="1098">  │ └── underscore@1.8.3 </tspan>
<tspan x="10" y="1114">  ├─┬ request@2.81.0 </tspan>
<tspan x="10" y="1130">  │ ├── aws-sign2@0.6.0 </tspan>
<tspan x="10" y="1146">  │ ├── aws4@1.6.0 </tspan>
<tspan x="10" y="1162">  │ ├── caseless@0.12.0 </tspan>
<tspan x="10" y="1178">  │ ├─┬ combined-stream@1.0.5 </tspan>
<tspan x="10" y="1194">  │ │ └── delayed-stream@1.0.0 </tspan>
<tspan x="10" y="1210">  │ ├── extend@3.0.0 </tspan>
<tspan x="10" y="1226">  │ ├── forever-agent@0.6.1 </tspan>
<tspan x="10" y="1242">  │ ├─┬ form-data@2.1.4 </tspan>
<tspan x="10" y="1258">  │ │ └── asynckit@0.4.0 </tspan>
<tspan x="10" y="1274">  │ ├─┬ har-validator@4.2.1 </tspan>
<tspan x="10" y="1290">  │ │ ├─┬ ajv@4.11.7 </tspan>
<tspan x="10" y="1306">  │ │ │ ├── co@4.6.0 </tspan>
<tspan x="10" y="1322">  │ │ │ └─┬ json-stable-stringify@1.0.1 </tspan>
<tspan x="10" y="1338">  │ │ │   └── jsonify@0.0.0 </tspan>
<tspan x="10" y="1354">  │ │ └── har-schema@1.0.5 </tspan>
<tspan x="10" y="1370">  │ ├─┬ hawk@3.1.3 </tspan>
<tspan x="10" y="1386">  │ │ ├── boom@2.10.1 </tspan>
<tspan x="10" y="1402">  │ │ ├── cryptiles@2.0.5 </tspan>
<tspan x="10" y="1418">  │ │ ├── hoek@2.16.3 </tspan>
<tspan x="10" y="1434">  │ │ └── sntp@1.0.9 </tspan>
<tspan x="10" y="1450">  │ ├─┬ http-signature@1.1.1 </tspan>
<tspan x="10" y="1466">  │ │ ├── assert-plus@0.2.0 </tspan>
<tspan x="10" y="1482">  │ │ ├─┬ jsprim@1.4.0 </tspan>
<tspan x="10" y="1498">  │ │ │ ├── assert-plus@1.0.0 </tspan>
<tspan x="10" y="1514">  │ │ │ ├── extsprintf@1.0.2 </tspan>
<tspan x="10" y="1530">  │ │ │ ├── json-schema@0.2.3 </tspan>
<tspan x="10" y="1546">  │ │ │ └── verror@1.3.6 </tspan>
<tspan x="10" y="1562">  │ │ └─┬ sshpk@1.13.0 </tspan>
<tspan x="10" y="1578">  │ │   ├── asn1@0.2.3 </tspan>
<tspan x="10" y="1594">  │ │   ├── assert-plus@1.0.0 </tspan>
<tspan x="10" y="1610">  │ │   ├── bcrypt-pbkdf@1.0.1 </tspan>
<tspan x="10" y="1626">  │ │   ├─┬ dashdash@1.14.1 </tspan>
<tspan x="10" y="1642">  │ │   │ └── assert-plus@1.0.0 </tspan>
<tspan x="10" y="1658">  │ │   ├── ecc-jsbn@0.1.1 </tspan>
<tspan x="10" y="1674">  │ │   ├─┬ getpass@0.1.6 </tspan>
<tspan x="10" y="1690">  │ │   │ └── assert-plus@1.0.0 </tspan>
<tspan x="10" y="1706">  │ │   ├── jodid25519@1.0.2 </tspan>
<tspan x="10" y="1722">  │ │   ├── jsbn@0.1.1 </tspan>
<tspan x="10" y="1738">  │ │   └── tweetnacl@0.14.5 </tspan>
<tspan x="10" y="1754">  │ ├── is-typedarray@1.0.0 </tspan>
<tspan x="10" y="1770">  │ ├── isstream@0.1.2 </tspan>
<tspan x="10" y="1786">  │ ├── json-stringify-safe@5.0.1 </tspan>
<tspan x="10" y="1802">  │ ├─┬ mime-types@2.1.15 </tspan>
<tspan x="10" y="1818">  │ │ └── mime-db@1.27.0 </tspan>
<tspan x="10" y="1834">  │ ├── oauth-sign@0.8.2 </tspan>
<tspan x="10" y="1850">  │ ├── performance-now@0.2.0 </tspan>
<tspan x="10" y="1866">  │ ├── qs@6.4.0 </tspan>
<tspan x="10" y="1882">  │ ├── safe-buffer@5.0.1 </tspan>
<tspan x="10" y="1898">  │ ├── stringstream@0.0.5 </tspan>
<tspan x="10" y="1914">  │ ├─┬ tough-cookie@2.3.2 </tspan>
<tspan x="10" y="1930">  │ │ └── punycode@1.4.1 </tspan>
<tspan x="10" y="1946">  │ ├── tunnel-agent@0.6.0 </tspan>
<tspan x="10" y="1962">  │ └── uuid@3.0.1 </tspan>
<tspan x="10" y="1978">  ├─┬ url@0.11.0 </tspan>
<tspan x="10" y="1994">  │ ├── punycode@1.3.2 </tspan>
<tspan x="10" y="2010">  │ └── querystring@0.2.0 </tspan>
<tspan x="10" y="2026">  └── watch@0.8.0</tspan>
</text>
</svg>
